<?xml version="1.0" encoding="UTF-8"?>
<svg xmlns="http://www.w3.org/2000/svg" xmlns:xlink="http://www.w3.org/1999/xlink" width="4501" height="3001" viewBox="0 0 4501 3001">
<path fill-rule="evenodd" fill="rgb(99.609375%, 67.771912%, 0%)" fill-opacity="1" d="M 2122.070312 691.769531 L 2057.710938 726.441406 C 1875.5 824.601562 1761.878906 1014.871094 1761.878906 1221.839844 C 1761.878906 1639.949219 1761.878906 2310.710938 1761.878906 2310.710938 C 1761.878906 2319.210938 1768.769531 2326.101562 1777.269531 2326.101562 L 2723.890625 2326.101562 C 2732.390625 2326.101562 2739.28125 2319.210938 2739.28125 2310.710938 C 2739.28125 2310.710938 2739.28125 1638.878906 2739.28125 1220.839844 C 2739.28125 1014.410156 2626.25 824.558594 2444.78125 726.171875 L 2373.570312 687.558594 C 2366.710938 641.210938 2343.128906 625.648438 2317.660156 612.21875 C 2297.851562 601.769531 2275.78125 593.789062 2265.980469 561.730469 C 2264.140625 555.691406 2258.789062 551.390625 2252.5 550.878906 C 2246.199219 550.371094 2240.238281 553.761719 2237.449219 559.429688 C 2220.949219 592.949219 2197.480469 603.53125 2177.011719 616.019531 C 2152.46875 631.011719 2130.910156 647.691406 2122.070312 691.769531 Z M 2143.230469 715.351562 C 2147.46875 713.058594 2150.390625 708.929688 2151.140625 704.171875 C 2158.261719 658.609375 2182.390625 648.910156 2206.851562 634.03125 C 2221.410156 625.171875 2236.179688 614.960938 2249.300781 598.308594 C 2260.21875 614.628906 2274.449219 624.078125 2289.238281 632.089844 C 2313.03125 644.96875 2339.378906 652.328125 2343.941406 698.820312 C 2344.441406 703.910156 2347.429688 708.410156 2351.921875 710.851562 C 2351.921875 710.851562 2384.460938 728.488281 2430.101562 753.238281 C 2601.640625 846.238281 2708.488281 1025.710938 2708.488281 1220.839844 C 2708.488281 1601.578125 2708.488281 2192.816406 2708.488281 2295.3125 L 1792.671875 2295.3125 L 1792.671875 1221.839844 C 1792.671875 1026.191406 1900.070312 846.339844 2072.308594 753.550781 C 2114.039062 731.070312 2143.230469 715.351562 2143.230469 715.351562 "/>
</svg>
